<svg
   height="64"
   width="64"
   version="1.1"
   id="svg22"
   xmlns="http://www.w3.org/2000/svg">
  <path
     d="M 7.0244488,7.0244488 3.0809407,54.346546 c 0,0 0,3.943508 3.9435081,3.943508 H 56.975551 c 3.943508,0 3.943508,-3.943508 3.943508,-3.943508 L 56.975551,7.0244488 Z"
     style="opacity:0.2;stroke-width:1.3145"
     id="path6" />
  <path
     d="M 7.0244488,5.7099461 3.0809407,53.032043 c 0,0 0,3.943508 3.9435081,3.943508 H 56.975551 c 3.943508,0 3.943508,-3.943508 3.943508,-3.943508 L 56.975551,5.7099461 Z"
     style="fill:#e4e4e4;stroke-width:1.3145"
     id="path8" />
  <path
     style="opacity:0.2;stroke-width:1.3145"
     d="m 19.512224,12.225968 a 4.6007594,4.6007594 0 0 0 -4.600759,4.600759 4.6007594,4.6007594 0 0 0 4.600759,4.60076 4.6007594,4.6007594 0 0 0 4.60076,-4.60076 4.6007594,4.6007594 0 0 0 -4.60076,-4.600759 z m 24.975552,0 a 4.6007594,4.6007594 0 0 0 -4.60076,4.600759 4.6007594,4.6007594 0 0 0 4.60076,4.60076 4.6007594,4.6007594 0 0 0 4.600759,-4.60076 4.6007594,4.6007594 0 0 0 -4.600759,-4.600759 z"
     id="path10" />
  <path
     style="fill:#f43f5e;fill-opacity:1;stroke-width:1.3145"
     d="m 19.512224,10.911465 a 4.6007594,4.6007594 0 0 0 -4.600759,4.600759 4.6007594,4.6007594 0 0 0 4.600759,4.60076 4.6007594,4.6007594 0 0 0 4.60076,-4.60076 4.6007594,4.6007594 0 0 0 -4.60076,-4.600759 z m 24.975552,0 a 4.6007594,4.6007594 0 0 0 -4.60076,4.600759 4.6007594,4.6007594 0 0 0 4.60076,4.60076 4.6007594,4.6007594 0 0 0 4.600759,-4.60076 4.6007594,4.6007594 0 0 0 -4.600759,-4.600759 z"
     id="path12" />
  <path
     style="opacity:0.2;stroke-width:1.3145"
     d="m 19.511139,26.88357 a 1.9714759,1.9666293 0 0 0 -1.961014,2.161027 c 0,0 0.36205,4.500407 2.240791,9.097311 0.93937,2.298453 2.263108,4.667987 4.242869,6.541974 1.979761,1.873985 4.696429,3.203134 7.964685,3.203134 3.268256,0 5.984924,-1.329149 7.964685,-3.203134 1.97976,-1.873987 3.303499,-4.243521 4.242869,-6.541974 1.878741,-4.596904 2.24079,-9.097311 2.24079,-9.097311 a 1.9714759,1.9666293 0 1 0 -3.927158,-0.33286 c 0,0 -0.359727,4.020801 -1.963578,7.945105 -0.801925,1.962152 -1.909943,3.853222 -3.305998,5.174687 -1.396055,1.321469 -3.000285,2.122621 -5.25161,2.122621 -2.251325,0 -3.855555,-0.801152 -5.251611,-2.122621 -1.396054,-1.321465 -2.504072,-3.212535 -3.305997,-5.174687 -1.603852,-3.924304 -1.963578,-7.945105 -1.963578,-7.945105 A 1.9714759,1.9666293 0 0 0 19.511139,26.88357 Z"
     id="path14" />
  <path
     style="fill:#f43f5e;fill-opacity:1;stroke-width:1.3145"
     d="m 19.511139,25.569067 a 1.9714759,1.9666293 0 0 0 -1.961014,2.161027 c 0,0 0.36205,4.500408 2.240791,9.097312 0.93937,2.298452 2.263108,4.667987 4.242869,6.541973 1.979761,1.873986 4.696429,3.203134 7.964685,3.203134 3.268256,0 5.984924,-1.329148 7.964685,-3.203134 1.97976,-1.873986 3.303499,-4.243521 4.242869,-6.541973 1.878741,-4.596904 2.24079,-9.097312 2.24079,-9.097312 a 1.9714759,1.9666293 0 1 0 -3.927158,-0.33286 c 0,0 -0.359727,4.020801 -1.963578,7.945106 -0.801925,1.962151 -1.909943,3.853221 -3.305998,5.174687 -1.396055,1.321468 -3.000285,2.122621 -5.25161,2.122621 -2.251325,0 -3.855555,-0.801153 -5.251611,-2.122621 -1.396054,-1.321466 -2.504072,-3.212536 -3.305997,-5.174687 -1.603852,-3.924305 -1.963578,-7.945106 -1.963578,-7.945106 a 1.9714759,1.9666293 0 0 0 -1.966145,-1.828167 z"
     id="path16" />
  <path
     style="opacity:0.2;fill:#ffffff;stroke-width:1.3145"
     d="M 7.0244488,5.7099461 3.0809407,53.032043 c 0,0 0.00269,0.246437 0.05905,0.598201 L 7.0244488,7.0244488 H 56.975551 l 3.884458,46.6057952 c 0.05636,-0.351764 0.05905,-0.598201 0.05905,-0.598201 L 56.975551,5.7099461 Z"
     id="path20" />
</svg>
